<svg width="419" height="419" xmlns="http://www.w3.org/2000/svg" xmlns:xlink="http://www.w3.org/1999/xlink" xml:space="preserve" overflow="hidden"><g transform="translate(39 -20)"><path d="M170.5 212.042C148.677 212.042 131.219 194.583 131.219 172.76 131.219 150.938 148.677 133.479 170.5 133.479 192.323 133.479 209.781 150.938 209.781 172.76 209.781 194.583 192.323 212.042 170.5 212.042ZM170.5 81.1042C140.384 81.1042 112.015 95.9437 94.9927 121.258 77.9708 146.136 74.4792 177.998 85.3906 206.368L126.854 298.024 162.644 373.095C163.953 376.15 167.008 377.896 170.5 377.896 173.992 377.896 177.047 376.15 178.356 373.095L214.146 298.024 255.609 206.368C266.521 177.998 263.029 146.136 246.007 121.258 228.985 95.9437 200.616 81.1042 170.5 81.1042Z" stroke="#000000" stroke-width="4.36458"/></g></svg>